<svg width="30" height="30" viewBox="0 0 30 30" fill="none" xmlns="http://www.w3.org/2000/svg">
<path fill-rule="evenodd" clip-rule="evenodd" d="M15 0C23.2827 0 30 6.7174 30 14.9998C30 23.2826 23.2827 30 15 30C6.71774 30 0 23.2826 0 14.9998C0 6.71743 6.71771 0 15 0ZM4.83819 21.8184C6.80197 20.4038 8.53069 18.627 11.1035 17.6817C12.2681 18.2943 13.5929 18.6408 15 18.6408C16.3894 18.6408 17.7008 18.3034 18.8543 17.7049C21.6138 18.7278 23.5791 20.6577 25.1626 21.8172C20.5811 28.6295 9.52052 28.7822 4.83822 21.8184L4.83819 21.8184ZM15 4.52485C18.1634 4.52485 20.7291 7.09063 20.7291 10.2544C20.7291 13.4183 18.1634 15.9836 15 15.9836C11.8362 15.9836 9.27048 13.4183 9.27048 10.2544C9.27048 7.09063 11.8362 4.52485 15 4.52485Z" fill="#0ABAB5"/>
</svg>
