<svg width="25" height="25" viewBox="0 0 25 25" fill="none" xmlns="http://www.w3.org/2000/svg">
<path d="M21.8322 0.000190728L13.841 0.0994484C13.2869 0.106396 12.7525 0.286384 12.2936 0.606986L8.59824 1.71768C8.58447 1.72198 8.5707 1.72661 8.55723 1.7319L7.29541 2.21628L7.29481 2.21496L7.28822 2.21893L7.14303 2.27451C6.78469 2.41215 6.45809 2.62291 6.17668 2.89223L5.08969 3.55063L4.34427 4.00954L4.3323 3.99167L4.21375 4.08993L3.84943 4.31393C3.52731 4.51244 3.24471 4.77415 3.013 5.08317L1.12611 6.64383C1.12072 6.64813 1.11593 6.65243 1.11084 6.65707C0.493552 7.20232 0.105875 7.9805 0.0184603 8.84768C-0.0677566 9.70593 0.149881 10.5503 0.632457 11.2279L8.29499 23.7317C8.30367 23.7459 8.31355 23.7601 8.32343 23.774C8.92425 24.6048 9.81965 25.0247 10.7141 24.9989C11.332 24.9807 11.9496 24.7501 12.4696 24.2938L14.5933 22.5638L16.9918 22.0635L18.2156 21.8097L18.2093 21.9156L22.0798 22.034C22.0954 22.0334 22.1104 22.0331 22.1259 22.0327C23.7308 21.9861 25.0178 20.3371 24.9998 18.5617L24.8247 3.31506C24.8064 1.51288 23.4629 -0.0196608 21.8322 0.000190728ZM6.58322 4.43204C6.66495 4.26694 6.76793 4.11806 6.88708 3.98836L7.78158 3.44641L8.22793 3.27503C7.99203 3.87124 7.91868 4.53792 8.02855 5.18607L10.3711 20.1012L6.47036 6.01917C6.46826 6.01123 6.46587 6.00362 6.46347 5.99535C6.30152 5.48053 6.34523 4.91079 6.58322 4.43204ZM10.9168 3.40506L11.0689 16.7198L9.22062 4.95281C9.22002 4.9495 9.21942 4.9462 9.21882 4.94289C9.12842 4.41252 9.24457 3.86032 9.53765 3.42756C9.79959 3.04078 10.181 2.77808 10.6112 2.68842L10.9962 2.60835C10.9408 2.86642 10.9138 3.13309 10.9168 3.40506ZM5.17262 5.03189C5.12951 5.49675 5.17591 5.97153 5.31601 6.42216L9.2323 20.5607L3.77878 8.14262C3.77369 8.13137 3.7683 8.12012 3.76291 8.1092C3.51893 7.62483 3.47522 7.04649 3.64406 6.52274C3.69914 6.35168 3.77518 6.19188 3.86918 6.04696L4.87385 5.21585L5.17262 5.03189ZM1.59372 10.4143C1.30213 10.0116 1.17041 9.50807 1.2222 8.99591C1.2731 8.48705 1.50001 8.03046 1.86015 7.70854L2.33614 7.31514C2.3556 7.81044 2.47654 8.29945 2.69657 8.74247L8.07046 20.9793L1.62216 10.457C1.61287 10.4424 1.60359 10.4282 1.59372 10.4143ZM23.785 18.4121C23.7955 19.4603 23.0336 20.3354 22.0861 20.3629L14.0667 20.4635C13.1037 20.475 12.3116 19.6188 12.3008 18.5541L12.1277 3.38951C12.1233 2.96303 12.243 2.55707 12.4732 2.21595C12.504 2.1693 12.5358 2.12629 12.5666 2.08791C12.8914 1.68327 13.339 1.45266 13.8269 1.43843L21.846 1.33851C22.8091 1.3266 23.6015 2.18287 23.612 3.2479L23.785 18.4121Z" fill="#2D9A9A"/>
</svg>
