<svg width="40" height="40" viewBox="0 0 40 40" fill="none" xmlns="http://www.w3.org/2000/svg">
<path d="M39.8131 7.04042C39.6025 6.72751 39.3076 6.57106 39.0127 6.57106H13.9454L13.0606 1.04302C12.9764 0.469361 12.5551 0 12.0495 0H6.31985C5.73003 0 5.2666 0.573664 5.2666 1.30378C5.2666 2.0339 5.73003 2.60756 6.31985 2.60756H11.2069L14.5773 23.6767C14.9986 26.3364 16.9366 28.3181 19.1273 28.3181H32.651C34.8418 28.3181 36.7376 26.3885 37.2011 23.781L39.9395 8.13559C40.0659 7.71838 39.9816 7.30117 39.8131 7.04042ZM35.221 23.2073C34.9682 24.6675 33.9149 25.7106 32.6932 25.7106H19.1695C17.9477 25.7106 16.8945 24.6154 16.6417 23.1552L14.3667 9.07432H37.7066L35.221 23.2073Z" fill="#F6F6F6"/>
<path d="M19.801 30.1953C17.6103 30.1953 15.8408 32.3857 15.8408 35.0975C15.8408 37.8094 17.6103 39.9997 19.801 39.9997C21.9918 39.9997 23.7612 37.8094 23.7612 35.0975C23.7612 32.4378 21.9918 30.1953 19.801 30.1953ZM19.801 37.4965C18.7478 37.4965 17.9052 36.4535 17.9052 35.1497C17.9052 33.8459 18.7478 32.8029 19.801 32.8029C20.8543 32.8029 21.6969 33.8459 21.6969 35.1497C21.6969 36.4535 20.8543 37.4965 19.801 37.4965Z" fill="#F6F6F6"/>
<path d="M31.8079 30.1953C29.6171 30.1953 27.8477 32.3857 27.8477 35.0975C27.8477 37.8094 29.6171 39.9997 31.8079 39.9997C33.9986 39.9997 35.7681 37.8094 35.7681 35.0975C35.8102 32.4378 33.9986 30.1953 31.8079 30.1953ZM31.8079 37.4965C30.7546 37.4965 29.912 36.4535 29.912 35.1497C29.912 33.8459 30.7546 32.8029 31.8079 32.8029C32.8611 32.8029 33.7037 33.8459 33.7037 35.1497C33.7458 36.4535 32.8611 37.4965 31.8079 37.4965Z" fill="#F6F6F6"/>
<path d="M9.31071 11.2139C9.31071 10.4838 8.84728 9.91016 8.25746 9.91016H1.05325C0.463429 9.91016 0 10.4838 0 11.2139C0 11.9441 0.463429 12.5177 1.05325 12.5177H8.29959C8.84728 12.5177 9.31071 11.9441 9.31071 11.2139Z" fill="#F6F6F6"/>
<path d="M10.4056 17.7842C10.4056 17.0541 9.94214 16.4805 9.35232 16.4805H2.10598C1.51616 16.4805 1.05273 17.0541 1.05273 17.7842C1.05273 18.5144 1.51616 19.088 2.10598 19.088H9.35232C9.94214 19.088 10.4056 18.5144 10.4056 17.7842Z" fill="#F6F6F6"/>
<path d="M10.4051 23.1016H3.15872C2.5689 23.1016 2.10547 23.6752 2.10547 24.4053C2.10547 25.1355 2.5689 25.7091 3.15872 25.7091H10.4051C10.9949 25.7091 11.4583 25.1355 11.4583 24.4053C11.4583 23.6752 10.9949 23.1016 10.4051 23.1016Z" fill="#F6F6F6"/>
</svg>
