<svg width="40" height="40" viewBox="0 0 40 40" fill="none" xmlns="http://www.w3.org/2000/svg">
<path d="M20.0072 0C8.97658 0 1.95545e-10 8.97658 1.95545e-10 20.0073V25.5866C-2.52909e-06 25.71 0.0245314 25.8321 0.0721732 25.9459C0.119815 26.0596 0.189613 26.1628 0.277504 26.2493C0.365395 26.3359 0.469622 26.4041 0.584119 26.4499C0.698615 26.4958 0.821093 26.5184 0.944422 26.5165H6.65454C6.79479 26.9727 7.0406 27.38 7.36649 27.708C7.52522 27.8677 7.51898 27.8358 7.59897 27.8968C7.67895 27.9578 7.77801 28.0362 7.90409 28.1293C8.15624 28.3155 8.50195 28.5627 8.90663 28.8558C9.71598 29.442 10.7645 30.2115 11.8125 30.9626C13.9037 32.4613 15.9585 33.9198 15.968 33.9266H15.9825C16.8563 34.5623 18.0035 34.547 18.8594 33.9847C19.4493 34.3183 20.0216 34.4206 20.4722 34.4206C21.9067 34.4206 23.9473 33.7572 26.1242 32.9241C28.2936 32.0939 30.4491 31.0914 31.7616 30.1925C31.7662 30.1879 31.7716 30.1812 31.7762 30.178C32.4844 29.714 33.0257 28.941 33.0257 28.1148C33.0257 27.6833 32.9122 27.2604 32.7206 26.9088C32.6409 26.7626 32.524 26.6436 32.43 26.5165H36.8906C34.2727 33.3081 27.7293 38.1402 20.0072 38.1402C15.0426 38.1402 10.5135 36.2207 7.23573 33.0258H8.84851C8.97173 33.0275 9.09407 33.0048 9.20842 32.9588C9.32276 32.9129 9.42684 32.8447 9.51459 32.7581C9.60235 32.6716 9.67203 32.5685 9.71959 32.4548C9.76715 32.3411 9.79165 32.2191 9.79165 32.0959C9.79165 31.9727 9.76715 31.8507 9.71959 31.737C9.67203 31.6233 9.60235 31.5202 9.51459 31.4337C9.42684 31.3471 9.32276 31.2789 9.20842 31.233C9.09407 31.187 8.97173 31.1643 8.84851 31.166H5.12894C5.0999 31.1646 5.0708 31.1646 5.04176 31.166C4.81055 31.1878 4.59586 31.2953 4.43992 31.4674C4.28397 31.6395 4.19804 31.8637 4.19905 32.0959V35.8155C4.1973 35.9387 4.22007 36.061 4.26602 36.1754C4.31197 36.2897 4.38018 36.3938 4.46671 36.4816C4.55323 36.5693 4.65633 36.639 4.77001 36.6866C4.8837 36.7341 5.0057 36.7586 5.12894 36.7586C5.25217 36.7586 5.37418 36.7341 5.48786 36.6866C5.60155 36.639 5.70465 36.5693 5.79117 36.4816C5.87769 36.3938 5.94591 36.2897 5.99186 36.1754C6.03781 36.061 6.06057 35.9387 6.05883 35.8155V34.4933C9.67469 37.9528 14.6243 40 20.0072 40C28.9325 40 36.4179 34.0911 38.9828 26.008C38.9935 25.9842 39.0032 25.96 39.0119 25.9353C39.0379 25.8746 39.0574 25.8113 39.07 25.7465C39.0762 25.7176 39.0811 25.6886 39.0845 25.6593C39.621 23.8541 39.9999 21.9851 39.9999 20.0073V13.498C40.0017 13.3748 39.9789 13.2524 39.9329 13.1381C39.887 13.0237 39.8188 12.9197 39.7322 12.8319C39.6457 12.7442 39.5426 12.6745 39.4289 12.6269C39.3153 12.5794 39.1932 12.5549 39.07 12.5549C38.9468 12.5549 38.8248 12.5794 38.7111 12.6269C38.5974 12.6745 38.4943 12.7442 38.4078 12.8319C38.3213 12.9197 38.253 13.0237 38.2071 13.1381C38.1611 13.2524 38.1384 13.3748 38.1401 13.498V20.0073C38.1401 21.6277 37.8693 23.1626 37.4718 24.6567H30.8608L21.1696 13.8031C21.0433 13.6617 20.8768 13.5623 20.6925 13.5181C20.5081 13.474 20.3146 13.4872 20.138 13.5561L14.2826 15.7937C14.2782 15.7951 14.2724 15.7928 14.268 15.7937C14.2188 15.8063 14.1622 15.8227 14.1082 15.8227C13.8855 15.8227 13.498 15.3853 13.498 15.0381C13.498 14.8091 13.6249 14.6215 13.8031 14.5151C13.8068 14.5127 13.7993 14.5027 13.8031 14.5005L21.4021 10.81L28.9865 14.3407C29.1093 14.398 29.2432 14.4278 29.3788 14.4279H35.3504C35.4737 14.4296 35.596 14.4069 35.7104 14.3609C35.8247 14.315 35.9288 14.2468 36.0165 14.1602C36.1043 14.0737 36.174 13.9706 36.2215 13.8569C36.2691 13.7432 36.2936 13.6212 36.2936 13.498C36.2936 13.3748 36.2691 13.2528 36.2215 13.1391C36.174 13.0254 36.1043 12.9223 36.0165 12.8358C35.9288 12.7492 35.8247 12.681 35.7104 12.6351C35.596 12.5891 35.4737 12.5664 35.3504 12.5681H29.5822L21.7944 8.93571C21.6279 8.85365 21.4406 8.82329 21.2568 8.84853C21.1657 8.86443 21.0776 8.89382 20.9952 8.93571L13.5416 12.5681H3.47257C6.30816 6.26551 12.6366 1.88885 20.0072 1.88885C24.9719 1.88885 29.4877 3.79613 32.7642 6.98874H31.1659C31.0427 6.987 30.9204 7.00976 30.806 7.05571C30.6917 7.10166 30.5876 7.16988 30.4998 7.2564C30.4121 7.34292 30.3424 7.44602 30.2948 7.55971C30.2473 7.67339 30.2228 7.7954 30.2228 7.91863C30.2228 8.04187 30.2473 8.16387 30.2948 8.27756C30.3424 8.39125 30.4121 8.49435 30.4998 8.58087C30.5876 8.66739 30.6917 8.73561 30.806 8.78156C30.9204 8.82751 31.0427 8.85027 31.1659 8.84853H34.8855C35.1321 8.8485 35.3686 8.75053 35.543 8.57614C35.7174 8.40176 35.8154 8.16525 35.8154 7.91863V4.19906C35.8182 4.06668 35.7928 3.93522 35.7407 3.81347C35.6887 3.69172 35.6113 3.58249 35.5136 3.49308C35.4159 3.40367 35.3003 3.33615 35.1745 3.29503C35.0486 3.25391 34.9154 3.24013 34.7838 3.25463C34.5527 3.28003 34.3395 3.39108 34.1862 3.56589C34.0329 3.74071 33.9506 3.9666 33.9556 4.19906V5.53578C30.3397 2.07542 25.3904 0 20.0072 0ZM2.76062 14.4279H11.8125C11.7574 14.6325 11.6382 14.8174 11.6382 15.0381C11.6382 16.3919 12.6274 17.6825 14.1082 17.6825C14.3384 17.6825 14.5646 17.6399 14.7766 17.5808C14.8061 17.5726 14.8352 17.5629 14.8638 17.5518L20.1961 15.5176L30.6283 27.1849C30.6321 27.1895 30.6246 27.1952 30.6283 27.1994C30.8732 27.4819 31.0302 27.6793 31.0933 27.7951C31.1574 27.9127 31.1659 27.9412 31.1659 28.1148C31.1659 28.3763 31.2063 28.3398 30.7446 28.6378C30.7397 28.6426 30.7348 28.6475 30.73 28.6524C29.6925 29.3655 27.5412 30.3824 25.4558 31.1805C23.3704 31.9787 21.2041 32.5608 20.4722 32.5608C20.1827 32.5608 20.1061 32.5843 19.92 32.4737C20.1356 31.541 19.804 30.5172 19.0047 29.9019L19.0192 29.8874C19.0192 29.8874 18.976 29.8583 18.9756 29.8583C18.9366 29.8263 17.1269 28.3199 15.227 26.749C14.2669 25.9552 13.2965 25.1644 12.539 24.5405C11.7815 23.9166 11.3146 23.5298 11.1151 23.3781C10.6357 23.0134 10.0278 22.7969 9.3861 22.7969C8.17091 22.7969 7.14143 23.5811 6.72719 24.6567H1.88884V20.0073C1.88884 18.0577 2.19341 16.1865 2.76062 14.4279ZM9.3861 24.6567C9.6201 24.6567 9.82666 24.7166 9.99634 24.8456C9.99286 24.841 10.6063 25.3419 11.3621 25.9644C12.1179 26.5869 13.0905 27.394 14.0501 28.1874C15.9694 29.7743 17.8423 31.3258 17.8423 31.3258C17.8566 31.3359 17.8711 31.3456 17.8859 31.3549C18.1957 31.5829 18.2484 31.9626 18.0167 32.2703C17.7791 32.5857 17.3781 32.6551 17.0722 32.4301C17.0675 32.4252 17.0626 32.4203 17.0577 32.4155C17.0577 32.4155 14.9957 30.9518 12.9023 29.4515C11.8556 28.7014 10.8008 27.9419 9.99634 27.3592C9.59413 27.0679 9.25179 26.8126 9.00833 26.6328C8.8866 26.5428 8.78387 26.4798 8.71774 26.4293C8.65162 26.3789 8.55845 26.269 8.68868 26.4003C8.50198 26.2122 8.38356 25.964 8.38356 25.6738C8.38356 25.0929 8.82222 24.6567 9.3861 24.6567Z" fill="#F6F6F6"/>
</svg>
