<svg width="25" height="25" viewBox="0 0 25 25" fill="none" xmlns="http://www.w3.org/2000/svg">
<path fill-rule="evenodd" clip-rule="evenodd" d="M24.4243 11.551L16.3557 16.3344C16.196 16.4862 15.9916 16.5823 15.7728 16.6083C15.6081 16.6519 15.4344 16.6476 15.2721 16.5957C15.1097 16.5438 14.9656 16.4467 14.8566 16.3156L10.4111 11.9115L5.9551 16.3344C5.75676 16.5302 5.48937 16.64 5.21074 16.64C4.93211 16.64 4.66472 16.5302 4.46638 16.3344C4.27121 16.139 4.1615 15.8741 4.1615 15.5979C4.1615 15.3217 4.27121 15.0568 4.46638 14.8615L9.66149 9.70521C9.86198 9.50949 10.131 9.39994 10.4111 9.39994C10.6912 9.39994 10.9601 9.50949 11.1606 9.70521L15.6687 14.1771L23.5081 9.52396C23.6268 9.45148 23.7599 9.4058 23.898 9.39012C24.0362 9.37444 24.176 9.38914 24.3079 9.43319C24.4398 9.47724 24.5606 9.54956 24.6616 9.64513C24.7626 9.74069 24.8415 9.85719 24.8929 9.98646C25.0138 10.2604 25.033 10.5684 24.9471 10.8552C24.8613 11.142 24.6758 11.3888 24.4243 11.551ZM23.9454 22.9167C24.2216 22.9167 24.4864 23.0264 24.6817 23.2218C24.8769 23.4171 24.9865 23.6821 24.9865 23.9583C24.9865 24.2346 24.8769 24.4995 24.6817 24.6949C24.4864 24.8902 24.2216 25 23.9454 25H1.04111C0.764987 25 0.50013 24.8902 0.304884 24.6949C0.109639 24.4995 0 24.2346 0 23.9583V1.04167C0 0.765399 0.109639 0.500447 0.304884 0.305096C0.50013 0.109746 0.764987 0 1.04111 0C1.31722 0 1.58208 0.109746 1.77733 0.305096C1.97257 0.500447 2.08221 0.765399 2.08221 1.04167V22.9167H23.9454Z" fill="#245861"/>
</svg>
