<svg width="25" height="25" viewBox="0 0 25 25" fill="none" xmlns="http://www.w3.org/2000/svg">
<path d="M12.5 0C10.0277 0 7.61099 0.733112 5.55538 2.10663C3.49976 3.48015 1.89761 5.43238 0.951511 7.71646C0.00541623 10.0005 -0.242126 12.5139 0.240189 14.9386C0.722505 17.3634 1.91301 19.5907 3.66117 21.3388C5.40933 23.087 7.63661 24.2775 10.0614 24.7598C12.4861 25.2421 14.9995 24.9946 17.2835 24.0485C19.5676 23.1024 21.5199 21.5002 22.8934 19.4446C24.2669 17.389 25 14.9723 25 12.5C24.9974 9.1856 23.6796 6.0077 21.3359 3.66406C18.9923 1.32043 15.8144 0.00262527 12.5 0ZM18.3386 15.4193C18.2886 15.5228 18.2105 15.6102 18.1132 15.6715C18.0159 15.7329 17.9034 15.7657 17.7885 15.7663C17.6918 15.7651 17.5967 15.7413 17.5109 15.6969L12.2224 13.0551H12.1878H12.158H12.1332H12.1035L12.0044 12.8965V12.8717C12.0053 12.8602 12.0053 12.8486 12.0044 12.837C12.0044 12.837 12.0044 12.837 12.0044 12.8023C12.0044 12.7676 12.0044 12.8023 12.0044 12.8023C12.005 12.7908 12.005 12.7792 12.0044 12.7676C12.0044 12.7676 12.0044 12.7676 12.0044 12.7379C12.002 12.7265 12.002 12.7146 12.0044 12.7032V3.27617C12.0044 3.11185 12.0696 2.95427 12.1858 2.83808C12.302 2.72189 12.4596 2.65662 12.6239 2.65662C12.7882 2.65662 12.9458 2.72189 13.062 2.83808C13.1782 2.95427 13.2435 3.11185 13.2435 3.27617V12.1184L18.1998 14.5965C18.3213 14.6918 18.4028 14.8289 18.4285 14.9811C18.4542 15.1332 18.4221 15.2895 18.3386 15.4193Z" fill="#245861"/>
</svg>
