<svg width="40" height="40" viewBox="0 0 40 40" fill="none" xmlns="http://www.w3.org/2000/svg">
<path fill-rule="evenodd" clip-rule="evenodd" d="M14.6331 0C6.56723 0 2.53674e-06 6.56723 2.53674e-06 14.6331C-8.4558e-07 14.6349 -8.4558e-07 14.6366 2.53674e-06 14.6383C0.00591525 16.654 0.428467 18.6473 1.24065 20.4921C1.30932 20.6546 1.40963 20.8018 1.53574 20.9252C1.66186 21.0486 1.81125 21.1457 1.97523 21.2108C2.13922 21.2759 2.31451 21.3077 2.49091 21.3044C2.66731 21.3012 2.8413 21.2628 3.00275 21.1917C3.16419 21.1205 3.30987 21.0179 3.4313 20.8899C3.55274 20.762 3.6475 20.6111 3.71008 20.4461C3.77265 20.2812 3.80179 20.1054 3.7958 19.9291C3.78981 19.7527 3.7488 19.5794 3.67517 19.419C3.01117 17.9097 2.66594 16.281 2.66057 14.6331V14.6305V14.6292C2.6627 8.00305 8.00643 2.66057 14.6331 2.66057C21.2611 2.66057 26.6057 8.00512 26.6057 14.6331C26.6057 21.2607 21.2618 26.605 14.6344 26.6057C12.9859 26.6038 11.356 26.2615 9.84592 25.6002C9.68575 25.5291 9.51313 25.4905 9.33798 25.4863C9.16282 25.4822 8.98857 25.5127 8.82523 25.5761C8.66189 25.6395 8.51268 25.7345 8.38617 25.8557C8.25966 25.9769 8.15834 26.122 8.08802 26.2824C8.01771 26.4429 7.97978 26.6157 7.97642 26.7909C7.97306 26.966 8.00434 27.1402 8.06846 27.3032C8.13257 27.4663 8.22826 27.6151 8.35004 27.741C8.47181 27.867 8.61727 27.9677 8.77806 28.0373C10.6237 28.8455 12.617 29.264 14.6318 29.2662C14.6323 29.2662 14.6327 29.2662 14.6331 29.2662C18.1884 29.2662 21.4517 27.9895 23.9906 25.8717L25.6456 27.5293C25.6136 27.5969 25.5748 27.6616 25.5469 27.7307C24.9877 29.1146 25.2201 30.8721 26.4407 32.0918L33.0934 38.7393C33.9688 39.6141 35.0944 40.0413 36.1385 39.9969C37.1826 39.9524 38.1131 39.4851 38.7991 38.7991C39.4851 38.1131 39.9524 37.1813 39.9968 36.1372C40.0413 35.0931 39.6154 33.9688 38.7406 33.0934L32.0918 26.4394C31.345 25.692 30.3223 25.2477 29.239 25.2468C28.6153 25.2463 28.0372 25.3941 27.5228 25.6417L25.8717 23.9906C27.9894 21.4517 29.2662 18.1884 29.2662 14.6331C29.2662 6.56723 22.699 0 14.6331 0ZM14.6318 5.32243C14.4547 5.31853 14.2785 5.35006 14.1137 5.41516C13.9489 5.48026 13.7987 5.57762 13.6721 5.70153C13.5454 5.82545 13.4447 5.97342 13.376 6.13676C13.3073 6.3001 13.2719 6.47551 13.2719 6.65272C13.2719 6.82992 13.3073 7.00534 13.376 7.16868C13.4447 7.33202 13.5454 7.47999 13.6721 7.6039C13.7987 7.72782 13.9489 7.82518 14.1137 7.89028C14.2785 7.95538 14.4547 7.9869 14.6318 7.983C18.3211 7.983 21.2858 10.9426 21.2858 14.6318C21.2819 14.809 21.3134 14.9852 21.3785 15.15C21.4436 15.3149 21.5409 15.465 21.6649 15.5917C21.7888 15.7184 21.9367 15.8191 22.1001 15.8878C22.2635 15.9566 22.4389 15.992 22.6161 15.992C22.7933 15.992 22.9688 15.9566 23.1321 15.8878C23.2955 15.8191 23.4435 15.7184 23.5674 15.5917C23.6913 15.465 23.7887 15.3149 23.8538 15.15C23.9188 14.9852 23.9503 14.809 23.9464 14.6318C23.9464 9.5047 19.7589 5.32243 14.6318 5.32243ZM29.239 27.9087C29.5943 27.909 29.9367 28.0554 30.2068 28.3257L36.8543 34.9784C37.2742 35.3986 37.3494 35.7156 37.3363 36.0242C37.3232 36.3328 37.1733 36.664 36.9193 36.918C36.6653 37.172 36.3341 37.3218 36.0255 37.335C35.7169 37.3476 35.3999 37.2742 34.9797 36.8543L28.3257 30.2055C27.854 29.7342 27.8176 29.2079 28.0113 28.7284C28.2051 28.249 28.5772 27.9081 29.239 27.9087Z" fill="#F6F6F6"/>
</svg>
