<svg width="20" height="20" viewBox="0 0 20 20" fill="none" xmlns="http://www.w3.org/2000/svg">
<path d="M8.57003 0.142578C3.84718 0.142578 -9.5243e-06 3.63167 0 7.91389C4.76218e-06 12.1961 3.84719 15.6844 8.57003 15.6844C10.225 15.6844 11.7606 15.2485 13.0625 14.5045L18.3743 19.3183C18.5529 19.4802 18.7951 19.5711 19.0477 19.5711C19.3003 19.5711 19.5425 19.4802 19.7211 19.3183C19.8997 19.1563 20 18.9367 20 18.7077C20 18.4787 19.8997 18.2591 19.7211 18.0971L14.5609 13.4192C16.03 12.0818 16.9709 10.261 17.0703 8.24532C17.1186 8.14031 17.1436 8.02768 17.1438 7.91389C17.1432 7.80096 17.1183 7.68921 17.0703 7.58499C16.869 3.46293 13.1646 0.142578 8.57003 0.142578ZM8.57003 1.87057C12.2634 1.87057 15.2389 4.5651 15.2389 7.91389C15.2389 11.2627 12.2634 13.9606 8.57003 13.9606C4.87665 13.9606 1.90487 11.2627 1.90486 7.91389C1.90486 4.5651 4.87665 1.87057 8.57003 1.87057Z" fill="#2B2B2B" fill-opacity="0.6"/>
</svg>
