<svg width="32" height="32" viewBox="0 0 32 32" fill="none" xmlns="http://www.w3.org/2000/svg">
<circle cx="16" cy="16" r="16" fill="#0ABAB5"/>
<path opacity="0.2" d="M24.2584 19.8035C23.0928 20.7642 21.4924 21.5145 19.6359 21.9449C19.5032 21.975 19.3637 21.9615 19.2401 21.9066C19.1166 21.8518 19.0163 21.7588 18.9557 21.6429L18.0459 19.9177C17.3682 20.0097 16.6845 20.0555 15.9999 20.0548C15.3153 20.0555 14.6315 20.0097 13.9538 19.9177L13.0441 21.6429C12.9835 21.7589 12.8832 21.8518 12.7597 21.9067C12.6361 21.9616 12.4966 21.975 12.3639 21.945C10.5074 21.5145 8.90696 20.7642 7.74134 19.8036C7.65232 19.731 7.58731 19.6356 7.55413 19.5288C7.52095 19.422 7.52102 19.3084 7.55432 19.2016L10.1246 11.0777C10.1506 10.9957 10.1954 10.9203 10.256 10.8569C10.3165 10.7935 10.3912 10.7437 10.4746 10.7111C11.2007 10.4292 11.9518 10.2088 12.7189 10.0524C12.865 10.022 13.0179 10.0439 13.148 10.1139C13.2782 10.1839 13.3764 10.2971 13.424 10.4316L14.0272 12.1476C15.3362 11.9778 16.6635 11.9778 17.9726 12.1476L18.5758 10.4316C18.6233 10.2971 18.7216 10.1839 18.8517 10.1139C18.9819 10.0439 19.1347 10.022 19.2809 10.0524C20.048 10.2088 20.799 10.4292 21.5251 10.7111C21.6085 10.7437 21.6832 10.7935 21.7438 10.8569C21.8043 10.9203 21.8492 10.9957 21.8752 11.0777L24.4454 19.2016C24.4787 19.3084 24.4788 19.422 24.4457 19.5288C24.4125 19.6355 24.3475 19.731 24.2585 19.8035H24.2584Z" fill="black"/>
<path d="M14.4835 17.3084C14.4835 17.4963 14.4301 17.6801 14.3301 17.8364C14.2301 17.9927 14.0879 18.1145 13.9216 18.1865C13.7553 18.2584 13.5723 18.2772 13.3958 18.2406C13.2192 18.2039 13.0571 18.1134 12.9298 17.9804C12.8025 17.8475 12.7158 17.6781 12.6807 17.4938C12.6456 17.3094 12.6636 17.1183 12.7325 16.9446C12.8014 16.771 12.918 16.6225 13.0677 16.5181C13.2174 16.4136 13.3933 16.3579 13.5734 16.3579C13.8147 16.3579 14.0462 16.458 14.2169 16.6363C14.3876 16.8145 14.4835 17.0563 14.4835 17.3084ZM18.4273 16.3579C18.2473 16.3579 18.0714 16.4136 17.9217 16.5181C17.772 16.6225 17.6554 16.771 17.5865 16.9446C17.5176 17.1183 17.4996 17.3094 17.5347 17.4938C17.5698 17.6781 17.6565 17.8475 17.7838 17.9804C17.9111 18.1134 18.0732 18.2039 18.2498 18.2406C18.4263 18.2772 18.6093 18.2584 18.7756 18.1865C18.9419 18.1145 19.0841 17.9927 19.1841 17.8364C19.2841 17.6801 19.3375 17.4963 19.3375 17.3084C19.3375 17.0563 19.2416 16.8145 19.0709 16.6363C18.9002 16.458 18.6687 16.3579 18.4273 16.3579ZM24.6776 20.6773C23.4204 21.8185 21.7301 22.6835 19.7895 23.179C19.6948 23.2032 19.5976 23.2155 19.5001 23.2156C19.2754 23.2152 19.0553 23.1493 18.8646 23.0252C18.6739 22.9012 18.5202 22.7239 18.4208 22.5135L17.7011 21.0102C17.1364 21.0769 16.5686 21.1103 16.0003 21.1102C15.4321 21.1103 14.8643 21.0769 14.2996 21.0102L13.5799 22.5135C13.4805 22.7239 13.3268 22.9011 13.1361 23.0252C12.9454 23.1492 12.7253 23.2152 12.5006 23.2156C12.4031 23.2155 12.3059 23.2032 12.2112 23.179C10.2706 22.6835 8.58034 21.8185 7.32323 20.6773C7.14616 20.517 7.01705 20.3068 6.95132 20.0719C6.88559 19.837 6.88603 19.5872 6.95259 19.3526L9.52937 10.3828C9.58098 10.202 9.6707 10.0356 9.79194 9.89567C9.91317 9.75579 10.0629 9.64603 10.23 9.57444C10.9911 9.24899 11.7783 8.99441 12.5823 8.81368C12.8751 8.74652 13.1813 8.79495 13.4419 8.94961C13.7025 9.10427 13.8991 9.35423 13.9937 9.65127L14.4421 11.0562C15.4782 10.9439 16.5226 10.9439 17.5587 11.0562L18.0072 9.65119C18.1018 9.35419 18.2983 9.10428 18.5589 8.94963C18.8195 8.79499 19.1257 8.74656 19.4185 8.81368C20.2226 8.99439 21.0098 9.249 21.7709 9.57452C21.9381 9.6461 22.0877 9.75585 22.209 9.89574C22.3302 10.0356 22.4199 10.2021 22.4715 10.3829L25.0482 19.3526C25.1147 19.5872 25.1152 19.8369 25.0495 20.0718C24.9837 20.3067 24.8547 20.5169 24.6776 20.6773ZM23.8814 19.7209L21.3091 10.7469C20.614 10.4494 19.895 10.2169 19.1605 10.0521L18.7788 11.2436C19.2773 11.3429 19.7696 11.4741 20.2527 11.6365C20.4057 11.6883 20.5328 11.8016 20.6059 11.9513C20.679 12.101 20.6922 12.275 20.6425 12.4348C20.5929 12.5947 20.4844 12.7274 20.3411 12.8037C20.1977 12.8801 20.0312 12.8938 19.8781 12.842C18.7146 12.4475 17.3737 12.2392 16.0003 12.2392C14.6273 12.2392 13.2863 12.4475 12.1225 12.842C11.9694 12.8938 11.8029 12.8801 11.6595 12.8037C11.5162 12.7273 11.4077 12.5946 11.3581 12.4347C11.3084 12.2749 11.3216 12.101 11.3947 11.9513C11.4679 11.8016 11.5949 11.6883 11.748 11.6365C12.2314 11.474 12.7239 11.3428 13.2227 11.2435L12.8424 10.0521C12.1076 10.2165 11.3883 10.4487 10.6928 10.7459L8.11489 19.7167C9.23115 20.7301 10.7458 21.5002 12.4994 21.9479L13.0449 20.8016C12.6067 20.7078 12.1738 20.5889 11.7481 20.4456C11.6715 20.4206 11.6005 20.38 11.5391 20.3261C11.4776 20.2722 11.427 20.2061 11.3902 20.1317C11.3534 20.0573 11.3311 19.976 11.3245 19.8925C11.318 19.809 11.3274 19.725 11.3521 19.6453C11.3769 19.5656 11.4165 19.4918 11.4688 19.4282C11.521 19.3647 11.5848 19.3125 11.6564 19.2749C11.7281 19.2372 11.8062 19.2147 11.8862 19.2088C11.9662 19.2029 12.0466 19.2135 12.1226 19.2402C13.2861 19.6345 14.627 19.8429 16.0003 19.8429C17.3737 19.8429 18.7146 19.6346 19.8781 19.2402C20.0312 19.1883 20.1977 19.2021 20.341 19.2784C20.4844 19.3548 20.5928 19.4875 20.6425 19.6474C20.6922 19.8072 20.679 19.9811 20.6059 20.1308C20.5327 20.2806 20.4057 20.3938 20.2526 20.4457C19.8275 20.5888 19.3953 20.7075 18.9578 20.8012L19.5061 21.9467C21.2549 21.5002 22.7695 20.7301 23.8814 19.7209Z" fill="black"/>
</svg>
