<svg width="48" height="31" viewBox="0 0 48 31" fill="none" xmlns="http://www.w3.org/2000/svg">
<path d="M3 0.166504C1.355 0.166504 0 1.44171 0 2.98984V27.4587C0 29.0069 1.355 30.2821 3 30.2821H45C46.645 30.2821 48 29.0069 48 27.4587V2.98984C48 1.44171 46.645 0.166504 45 0.166504H3ZM3 2.04873H45C45.566 2.04873 46 2.45717 46 2.98984V27.4587C46 27.9914 45.566 28.3998 45 28.3998H3C2.434 28.3998 2 27.9914 2 27.4587V2.98984C2 2.45717 2.434 2.04873 3 2.04873ZM15.5 7.01873L11.031 10.019V12.3125L15.281 9.4308H15.5V22.9292H17.875V7.01967L15.5 7.01873ZM33.813 7.01873L29.343 10.019V12.3125L33.593 9.4308H33.813V22.9292H36.187V7.01967L33.813 7.01873ZM24.437 11.6067C23.523 11.6067 22.812 12.2758 22.812 13.136C22.812 13.9858 23.523 14.6653 24.437 14.6653C25.363 14.6653 26.062 13.9858 26.062 13.136C26.062 12.2758 25.363 11.6067 24.437 11.6067ZM24.437 20.0183C23.523 20.0183 22.812 20.6865 22.812 21.5476C22.812 22.3965 23.523 23.0769 24.437 23.0769C25.363 23.0769 26.062 22.3965 26.062 21.5476C26.062 20.6874 25.363 20.0183 24.437 20.0183Z" fill="#4DA9AF"/>
</svg>
