<svg width="100" height="105" viewBox="0 0 100 105" fill="none" xmlns="http://www.w3.org/2000/svg">
<path d="M100 98.4249V45.8232C100 42.2067 97.1874 39.248 93.75 39.248H82.4688L60.8749 16.5305C59.8125 18.4373 58.2813 20.0482 56.4688 21.1661L73.6563 39.2479H26.5938L43.7813 21.1661C41.9374 20.0482 40.4062 18.4373 39.4062 16.4976L17.7812 39.2479H6.25C2.81256 39.2479 0 42.2066 0 45.8231V98.4248C0 102.041 2.81256 105 6.25 105H93.75C97.1874 105 100 102.041 100 98.4249ZM90.625 98.4249H9.375C7.65628 98.4249 6.25 96.9454 6.25 95.1373V49.1108C6.25 47.3026 7.65628 45.8232 9.375 45.8232H90.625C92.3437 45.8232 93.75 47.3026 93.75 49.1108V95.1373C93.75 96.9454 92.3437 98.4249 90.625 98.4249Z" fill="#245861"/>
<path d="M84.3867 52.4316H15.6367C13.918 52.4316 12.5117 53.9111 12.5117 55.7192V88.5953C12.5117 90.4035 13.918 91.8829 15.6367 91.8829H84.3867C86.1054 91.8829 87.5117 90.4035 87.5117 88.5953V55.7192C87.5117 53.9111 86.1054 52.4316 84.3867 52.4316ZM34.793 76.6942C34.3867 77.3188 33.7617 77.8448 32.9491 78.2065C32.1679 78.5352 31.2304 78.7325 30.1055 78.7325C29.1678 78.7325 28.2616 78.601 27.3867 78.3379C26.4803 78.042 25.7617 77.6804 25.1992 77.253C25.0117 77.1215 24.9491 76.8914 25.043 76.6612L25.9492 74.6229C26.0117 74.4915 26.1054 74.3927 26.2616 74.3598C26.3867 74.2942 26.5429 74.3271 26.6678 74.4257C27.1054 74.7544 27.6366 75.0503 28.2616 75.2476C28.8867 75.4448 29.5117 75.5435 30.1366 75.5435C30.9491 75.5435 31.3553 75.4119 31.5428 75.2805C31.8242 75.1161 31.8555 74.9189 31.8555 74.7873C31.8555 74.6558 31.8242 74.5571 31.6991 74.4586C31.5428 74.3271 31.3241 74.1955 31.0429 74.097C30.7303 73.9982 30.293 73.8668 29.7616 73.7352C28.8554 73.5379 28.1367 73.3078 27.5742 73.0778C26.9492 72.8476 26.3868 72.4532 25.9492 71.927C25.4804 71.3682 25.2305 70.6121 25.2305 69.7244C25.2305 68.9354 25.4491 68.2449 25.8553 67.5874C26.2616 66.9627 26.8867 66.4697 27.6679 66.1081C28.4492 65.7463 29.4179 65.582 30.5118 65.582C31.2617 65.582 32.043 65.6807 32.7617 65.8451C33.4803 66.0423 34.1679 66.3381 34.6992 66.6999C34.9179 66.7984 34.9805 67.0615 34.8867 67.2916L34.0741 69.3628C34.0428 69.4942 33.9179 69.593 33.793 69.6257C33.6678 69.6586 33.5429 69.6586 33.418 69.593C32.4492 69.034 31.4492 68.7382 30.4805 68.7382C29.8554 68.7382 29.3866 68.8367 29.1367 69.034C28.8867 69.1656 28.7928 69.3628 28.7928 69.593C28.7928 69.7573 28.8554 69.8888 29.1367 70.0531C29.5117 70.2176 30.1055 70.4149 30.9178 70.5792C31.8242 70.8094 32.5116 71.0395 33.1054 71.2367C33.7304 71.4996 34.2616 71.8614 34.6992 72.3873C35.168 72.9462 35.4178 73.6695 35.4178 74.59C35.4178 75.3464 35.1993 76.0695 34.793 76.6942ZM49.0117 75.5107C48.4179 76.4969 47.6054 77.3189 46.6054 77.8777C45.6053 78.4367 44.4491 78.7325 43.1992 78.7325C41.9492 78.7325 40.7929 78.4367 39.7616 77.8777C38.7616 77.3189 37.949 76.5299 37.3555 75.5107C36.7928 74.5245 36.4804 73.3737 36.4804 72.1573C36.4804 70.908 36.7928 69.7903 37.3555 68.7711C37.949 67.7847 38.7616 66.9957 39.7616 66.404C41.8242 65.2863 44.5742 65.2863 46.6053 66.404C47.6367 66.9957 48.4492 67.7847 49.0117 68.7711C49.6054 69.7574 49.8866 70.908 49.8866 72.1573C49.8866 73.3737 49.6054 74.5245 49.0117 75.5107ZM61.168 78.042C61.168 78.3051 60.9492 78.5023 60.6679 78.5023H52.3242C52.0742 78.5023 51.8554 78.3051 51.8554 78.042V66.2725C51.8554 65.9765 52.0742 65.7793 52.3242 65.7793H54.9804C55.2305 65.7793 55.4492 65.9766 55.4492 66.2725V75.3134H60.6679C60.9493 75.3134 61.168 75.5436 61.168 75.8065V78.042ZM74.1679 75.4778C73.5742 76.464 72.7929 77.2201 71.7616 77.7462C70.7305 78.2393 69.5742 78.5023 68.2616 78.5023H63.0742C62.8241 78.5023 62.6054 78.3051 62.6054 78.042V66.2725C62.6054 65.9765 62.8242 65.7793 63.0742 65.7793H68.2616C69.5742 65.7793 70.7305 66.0424 71.7616 66.5683C72.7929 67.0944 73.5742 67.8505 74.1679 68.8039C74.7304 69.7574 75.0117 70.875 75.0117 72.1573C75.0117 73.4066 74.7304 74.5245 74.1679 75.4778Z" fill="#245861"/>
<path d="M44.793 69.2595C44.3243 68.9964 43.7931 68.865 43.1994 68.865C42.6056 68.865 42.0742 68.9964 41.6056 69.2924C41.1368 69.5554 40.7618 69.9499 40.5117 70.443C40.2306 70.9362 40.1055 71.495 40.1055 72.1526C40.1055 72.7772 40.2306 73.369 40.5117 73.8622C40.7618 74.3552 41.1367 74.717 41.6056 75.0128C42.5431 75.5716 43.8242 75.5716 44.793 75.0128C45.2618 74.717 45.6055 74.3552 45.8868 73.8622C46.1369 73.369 46.2931 72.7772 46.2931 72.1526C46.2931 71.495 46.1369 70.9362 45.8868 70.443C45.6055 69.95 45.2618 69.5555 44.793 69.2595Z" fill="#245861"/>
<path d="M68.1367 69.002H66.1992V75.3143H68.1367C69.168 75.3143 69.9493 75.0183 70.543 74.4595C71.1055 73.9006 71.4179 73.1444 71.4179 72.1581C71.4179 71.1719 71.1055 70.4158 70.543 69.8239C69.9493 69.265 69.168 69.002 68.1367 69.002Z" fill="#245861"/>
<path d="M50.1387 19.7256C55.3163 19.7256 59.5137 15.3099 59.5137 9.86282C59.5137 4.41573 55.3163 0 50.1387 0C44.961 0 40.7637 4.41573 40.7637 9.86282C40.7637 15.3099 44.961 19.7256 50.1387 19.7256Z" fill="#245861"/>
</svg>
