<svg width="25" height="25" viewBox="0 0 25 25" fill="none" xmlns="http://www.w3.org/2000/svg">
<path d="M18.7814 0.526433C18.1226 0.368398 17.4813 0.213934 16.9105 0.0349171C16.7561 -0.0208863 16.5684 -0.0119578 16.4182 0.0773275L12.4997 2.44339L8.5823 0.0773275H8.57805C8.44862 9.56997e-05 8.27781 -0.0226721 8.11921 0.0277741C7.53994 0.210809 6.8896 0.366612 6.21804 0.526433C3.25914 1.23134 0 2.00812 0 5.5715V13.6465V13.6567C0 13.8871 0.221732 14.0746 0.49651 14.0746H3.58909V24.5545V24.5647C3.58909 24.8054 3.81824 25 4.10204 25H20.8789H20.8911C21.1738 25 21.4072 24.8054 21.4072 24.5647V14.0746H24.4913H24.5046C24.7793 14.0746 25 13.8871 25 13.6567V5.5715C24.9995 2.00812 21.7361 1.23134 18.7814 0.526433ZM24.008 13.2425H21.4067V9.11345C21.4067 8.87283 21.1738 8.67774 20.8905 8.67774C20.6067 8.67774 20.3776 8.87283 20.3776 9.11345V24.1317H15.1133V15.2938C15.1133 15.0541 14.8831 14.8612 14.595 14.8612C14.3123 14.8612 14.0832 15.0541 14.0832 15.2938V24.1317H13.0159V15.2938C13.0159 15.0541 12.7867 14.8612 12.4987 14.8612C12.2159 14.8612 11.9857 15.0541 11.9857 15.2938V24.1317H10.9153V15.2938C10.9153 15.0541 10.685 14.8612 10.3981 14.8612C10.1143 14.8612 9.8851 15.0541 9.8851 15.2938V24.1317H4.61658V9.11345C4.61658 8.87283 4.38265 8.67774 4.09939 8.67774C3.81559 8.67774 3.58643 8.87283 3.58643 9.11345V13.2425H0.986123V5.5715C0.986123 2.63357 3.87076 1.94652 6.48327 1.32598C7.07898 1.18179 7.66725 1.0434 8.21363 0.88045L9.88457 1.89027V4.69651C9.88457 4.93535 10.1137 5.13222 10.3975 5.13222C10.6845 5.13222 10.9147 4.93579 10.9147 4.69651V2.51169L11.9852 3.15723V4.69651C11.9852 4.93535 12.2154 5.13222 12.4981 5.13222C12.7862 5.13222 13.0153 4.93579 13.0153 4.69651V3.15321L14.0826 2.51125V4.69651C14.0826 4.93535 14.3118 5.13222 14.5945 5.13222C14.8826 5.13222 15.1128 4.93579 15.1128 4.69651V1.89027L16.7827 0.88045C17.3296 1.0434 17.9173 1.18179 18.5141 1.32598C21.1271 1.94652 24.007 2.63357 24.007 5.5715V13.2425H24.008ZM9.90738 5.82998V14.1911H8.87352V6.6965H8.403V5.82998H9.90738ZM16.1562 6.2023C15.8846 5.97016 15.5053 5.82998 15.0931 5.82998H12.1247C11.7083 5.82998 11.3333 5.97016 11.0617 6.2023C10.7869 6.42954 10.6203 6.74516 10.6203 7.0965V12.9255C10.6203 13.2737 10.7869 13.5911 11.0617 13.8215C11.3333 14.0491 11.7083 14.1911 12.1247 14.1911H15.0931C15.5053 14.1911 15.8846 14.0491 16.1562 13.8215C16.4267 13.5911 16.5975 13.2737 16.5975 12.9255V7.0965C16.5975 6.74471 16.4262 6.42909 16.1562 6.2023ZM15.5674 12.925C15.5674 13.0349 15.5133 13.1331 15.4252 13.2067C15.3425 13.2791 15.221 13.3242 15.0926 13.3242H12.1242C11.9916 13.3242 11.8743 13.2791 11.7863 13.2067C11.7035 13.1331 11.6494 13.0349 11.6494 12.925V7.0965C11.6494 6.98578 11.7035 6.88578 11.7863 6.81436C11.8749 6.74203 11.9921 6.6965 12.1247 6.6965H15.0931C15.2215 6.6965 15.343 6.74203 15.4257 6.81436C15.5138 6.88578 15.5679 6.98578 15.5679 7.0965V12.925H15.5674Z" fill="#2D9A9A"/>
</svg>
