<svg width="40" height="40" viewBox="0 0 40 40" fill="none" xmlns="http://www.w3.org/2000/svg">
<path d="M6.50622 6.50122H24.7671C25.0875 6.50122 25.3468 6.24193 25.3468 5.92151C25.3468 5.60108 25.0875 5.3418 24.7671 5.3418H6.50622C6.1858 5.3418 5.92651 5.60108 5.92651 5.92151C5.92651 6.24193 6.1858 6.50122 6.50622 6.50122ZM6.50622 10.9459H24.7671C25.0875 10.9459 25.3468 10.6866 25.3468 10.3661C25.3468 10.0457 25.0875 9.78643 24.7671 9.78643H6.50622C6.1858 9.78643 5.92651 10.0457 5.92651 10.3661C5.92651 10.6866 6.1858 10.9459 6.50622 10.9459ZM6.50622 15.3899H24.7671C25.0875 15.3899 25.3468 15.1306 25.3468 14.8102C25.3468 14.4898 25.0875 14.2305 24.7671 14.2305H6.50622C6.1858 14.2305 5.92651 14.4898 5.92651 14.8102C5.92651 15.1306 6.1858 15.3899 6.50622 15.3899ZM6.50622 19.8346H24.7671C25.0875 19.8346 25.3468 19.5753 25.3468 19.2548C25.3468 18.9344 25.0875 18.6751 24.7671 18.6751H6.50622C6.1858 18.6751 5.92651 18.9344 5.92651 19.2548C5.92651 19.5753 6.1858 19.8346 6.50622 19.8346Z" fill="#4DA9AF"/>
<path d="M30.64 20.858C29.858 20.858 29.1113 21.0038 28.4163 21.258V3.32236C28.4163 2.29032 27.579 1.4502 26.5497 1.4502H4.72344C3.69423 1.4502 2.85693 2.29032 2.85693 3.32236V34.0125C2.85693 36.445 4.82137 38.537 7.28299 38.5453C7.29014 38.5456 7.29608 38.5494 7.30326 38.5494H28.037C30.4894 38.5494 32.4844 36.5544 32.4844 34.1019C32.4844 33.9164 32.3918 33.7586 32.2563 33.6526C35.0613 32.931 37.1431 30.388 37.1431 27.3611C37.1431 23.7753 34.2258 20.858 30.64 20.858ZM4.01635 34.0125V3.32236C4.01635 2.92948 4.33339 2.60962 4.72344 2.60962H26.5498C26.9398 2.60962 27.2568 2.92948 27.2568 3.32236V21.8179C26.4987 22.2824 25.8425 22.8947 25.3305 23.6187C25.2898 23.3384 25.0589 23.1197 24.767 23.1197H6.50617C6.18575 23.1197 5.92646 23.379 5.92646 23.6994C5.92646 24.0198 6.18575 24.2791 6.50617 24.2791H24.767C24.8263 24.2791 24.8803 24.2618 24.9342 24.2454C24.4266 25.1713 24.1369 26.2328 24.1369 27.3611C24.1369 27.4294 24.1451 27.4958 24.1472 27.5638H6.50616C6.18574 27.5638 5.92645 27.823 5.92645 28.1435C5.92645 28.4639 6.18574 28.7232 6.50616 28.7232H24.283C24.6613 30.4902 25.7616 31.9882 27.2568 32.9043V33.5194H11.1699C10.8495 33.5194 10.5902 33.7787 10.5902 34.0991C10.5902 35.9226 9.08012 37.386 7.3678 37.386C5.51002 37.4213 4.01635 35.8411 4.01635 34.0125ZM28.5745 33.5222H28.4163V33.4642C28.469 33.4834 28.5211 33.5042 28.5745 33.5222ZM28.037 37.39H10.2952C11.135 36.6234 11.5947 35.5885 11.7134 34.6816H31.2741C30.9995 36.2192 29.6521 37.39 28.037 37.39ZM30.64 32.7047C27.6933 32.7047 25.2964 30.3078 25.2964 27.3611C25.2964 24.4144 27.6933 22.0175 30.64 22.0175C33.5867 22.0175 35.9836 24.4144 35.9836 27.3611C35.9836 30.3078 33.5867 32.7047 30.64 32.7047Z" fill="#4DA9AF"/>
<path d="M32.6379 25.3534L29.8526 28.1388L28.6417 26.9278C28.4152 26.7014 28.0484 26.7014 27.8219 26.9278C27.5955 27.1543 27.5955 27.5211 27.8219 27.7476L29.4427 29.3684C29.556 29.4816 29.7043 29.5382 29.8526 29.5382C30.0009 29.5382 30.1493 29.4816 30.2625 29.3684L33.4577 26.1732C33.6841 25.9467 33.6841 25.5799 33.4577 25.3534C33.2312 25.127 32.8644 25.127 32.6379 25.3534Z" fill="#4DA9AF"/>
</svg>
