<svg width="40" height="40" viewBox="0 0 40 40" fill="none" xmlns="http://www.w3.org/2000/svg">
<path d="M9.40837 37.2585C9.56671 37.4085 9.77504 37.5002 10 37.5002H30C30.4584 37.5002 30.8334 37.1252 30.8334 36.6668V6.66683C30.8334 6.2085 30.4584 5.8335 30 5.8335H6.66671C6.20837 5.8335 5.83337 6.2085 5.83337 6.66683V33.3335C5.83337 33.5585 5.92504 33.7668 6.07504 33.9252L9.40837 37.2585ZM7.50004 7.50016H29.1667V35.8335H10.3417L7.50004 32.9918V7.50016Z" fill="#4DA9AF"/>
<path d="M33.3333 2.5H9.99996C9.54163 2.5 9.16663 2.875 9.16663 3.33333C9.16663 3.79167 9.54163 4.16667 9.99996 4.16667H32.5V33.3333C32.5 33.7917 32.875 34.1667 33.3333 34.1667C33.7916 34.1667 34.1666 33.7917 34.1666 33.3333V3.33333C34.1666 2.875 33.7916 2.5 33.3333 2.5Z" fill="#4DA9AF"/>
<path d="M15.1416 25.4584C15.2666 25.65 15.4666 25.775 15.6916 25.8167C15.7333 25.825 15.7833 25.8334 15.8333 25.8334C16.0083 25.8334 16.1833 25.775 16.325 25.675L25.4916 19.0084C25.8666 18.7417 25.95 18.2167 25.675 17.8417C25.4083 17.4667 24.8833 17.3834 24.5083 17.6584L16.0416 23.8167L13.1916 19.5417C12.9333 19.1584 12.4166 19.0584 12.0333 19.3084C11.65 19.5667 11.55 20.0834 11.8 20.4667L15.1416 25.4584Z" fill="#4DA9AF"/>
</svg>
