<svg width="45" height="45" viewBox="0 0 45 45" fill="none" xmlns="http://www.w3.org/2000/svg">
<circle cx="22.5" cy="22.5" r="22.5" fill="url(#paint0_linear)"/>
<path d="M12.7067 11.4092H31.7112M12.7067 11.4092L5.58008 19.0449M12.7067 11.4092L19.1547 19.0449M31.7112 11.4092L39.6863 19.0449M31.7112 11.4092L25.0936 19.0449M39.6863 19.0449H25.0936M39.6863 19.0449L31.2021 28.1229M5.58008 19.0449H19.1547M5.58008 19.0449L14.149 28.1229M19.1547 19.0449H22.1241M25.0936 19.0449H22.1241M31.2021 28.1229L22.718 37.2009L14.149 28.1229M31.2021 28.1229L22.1241 19.0449M22.1241 19.0449L14.149 28.1229" stroke="#245861"/>
<path d="M20.5127 19.3142L22.1202 17.5176L23.567 19.3142L22.1202 20.5719L20.5127 19.3142Z" fill="#245861" stroke="#245861"/>
<path d="M12.7061 28.1384L14.3136 26.3418L15.7603 28.1384L14.3136 29.3961L12.7061 28.1384Z" fill="#245861" stroke="#245861"/>
<path d="M29.3359 28.1384L30.9435 26.3418L32.3902 28.1384L30.9435 29.3961L29.3359 28.1384Z" fill="#245861" stroke="#245861"/>
<defs>
<linearGradient id="paint0_linear" x1="9.43548" y1="3.99194" x2="47.5403" y2="48.9919" gradientUnits="userSpaceOnUse">
<stop stop-color="#9DE2DB"/>
<stop offset="1" stop-color="#D1EFC5"/>
</linearGradient>
</defs>
</svg>
