<svg width="156" height="40" viewBox="0 0 156 40" fill="none" xmlns="http://www.w3.org/2000/svg">
<path fill-rule="evenodd" clip-rule="evenodd" d="M64.0037 25.5955V22.0037C62.4107 22.2627 61.5256 22.4873 60.6408 22.8499C59.4017 23.3162 59.0478 23.8858 59.0478 25.3709C59.0478 26.7177 59.5787 27.2186 60.6408 27.2186C61.7028 27.2186 62.9416 26.6314 64.0037 25.5955ZM56.747 17.497L56.2161 17.7043L54.977 14.3888C56.57 13.5772 57.2779 13.3356 58.6939 13.0076C60.1099 12.6793 61.5256 12.5067 63.1185 12.5067C67.7205 12.5067 69.3134 14.0608 69.3134 18.6538V27.4776C69.3134 28.4099 69.8443 28.8761 70.9061 28.8761H71.0831V30.7238H65.7736C64.7115 30.7238 64.1806 30.1886 64.1806 29.0661V28.5135C63.1185 29.4633 62.7646 29.6706 61.8798 30.0676C60.9947 30.6202 59.7559 30.8965 58.5169 30.8965C55.331 30.8965 53.915 29.2734 53.915 25.8715C53.915 23.1606 54.977 21.4338 57.2779 20.5359C57.986 20.2426 58.6939 20.018 59.4017 19.8453C60.8177 19.5517 61.5256 19.4137 64.0037 19.0165V18.5675C64.0037 16.979 63.4725 16.4091 61.7028 16.4091C61.3486 16.4091 60.6408 16.4781 60.1099 16.5472C59.0478 16.7371 58.163 16.9444 56.747 17.497ZM51.0876 8.8449C51.0876 7.25616 49.8486 6.32365 47.9017 6.32365C45.7779 6.32365 44.7161 7.25616 44.7161 8.8449C44.7161 10.468 45.7779 11.4176 47.9017 11.4176C49.8486 11.4176 51.0876 10.468 51.0876 8.8449ZM50.9107 30.7226V14.5258C50.9107 13.4033 50.2028 12.7471 49.1407 12.7471H43.654V14.6985H44.0079C45.07 14.6985 45.4239 15.1301 45.4239 16.1143V30.7226H50.9107ZM14.9792 21.059H9.31554L12.3245 11.5103L14.9792 21.059ZM6.66078 30.7117L8.43071 24.8925H15.6871L17.457 30.7117H23.4749L17.1031 8.6267C16.7492 7.17623 16.0413 6.70997 14.4484 6.70997H5.59872V8.69571H6.30685C7.36865 8.69571 7.89955 9.02369 7.89955 9.81819C7.89955 10.3188 7.89955 10.6471 7.36865 11.8383L0.99707 30.7117H6.66078ZM31.0842 30.7117V8.47136C31.0842 7.31425 30.3761 6.70997 29.1373 6.70997H23.6505V8.69571H24.0045C25.0663 8.69571 25.5974 9.12733 25.5974 10.0598V30.7117H31.0842ZM40.9964 8.47136V30.7117H35.5097V10.0598C35.5097 9.12733 34.9788 8.69571 33.9167 8.69571H33.5628V6.70997H39.0495C40.2883 6.70997 40.9964 7.31425 40.9964 8.47136ZM79.4021 30.7076V18.5169C80.6409 17.3944 81.526 16.9628 82.765 16.9628C84.0038 16.9628 84.3577 17.4807 84.3577 19.3111V30.7076H89.8445V18.4476C89.8445 15.9266 89.4905 14.8388 88.7827 13.8892C87.8976 12.9567 86.8358 12.5251 85.2428 12.5251C83.119 12.5251 81.526 13.2847 79.0482 15.3741V14.4072C79.0482 13.2847 78.517 12.7321 77.4552 12.7321H72.1454V14.6835H72.3224C73.3845 14.6835 73.9154 15.1151 73.9154 16.0993V30.7076H79.4021ZM98.6995 27.2704H106.841V30.7066H92.6818V26.9768L100.646 16.1329H96.3985C95.3366 16.1329 94.8056 16.5301 94.8056 17.5143V17.8769H92.8587V14.6134C92.8587 13.2838 93.3896 12.7312 94.8056 12.7312H106.487V16.4264L98.6995 27.2704Z" fill="#2B2B2B"/>
<path fill-rule="evenodd" clip-rule="evenodd" d="M138.164 29.7173V9.37621C138.164 7.73581 137.457 7.2005 135.864 7.2005H131.085V9.44535H131.616C132.501 9.44535 132.855 9.77336 132.855 10.7749V29.7173H138.164ZM140.996 29.7173H146.129V14.3665C146.129 12.8124 145.421 12.1908 143.828 12.1908H140.996V29.7173ZM130.023 29.7173V12.1908H127.191C125.598 12.1908 124.89 12.8124 124.89 14.3665V29.7173H130.023ZM152.147 19.495C152.147 29.0093 145.067 35.9508 135.51 35.9508C125.952 35.9508 118.872 29.0093 118.872 19.495C118.872 9.98065 125.952 3.0391 135.51 3.0391C145.067 3.0391 152.147 9.98065 152.147 19.495ZM155.51 19.495C155.51 8.35751 147.014 2.28882e-05 135.51 2.28882e-05C124.182 2.28882e-05 115.51 8.35751 115.51 19.495C115.51 30.667 124.182 39.0244 135.51 39.0244C147.014 39.0244 155.51 30.667 155.51 19.495Z" fill="#2B2B2B"/>
</svg>
