<svg width="201" height="44" viewBox="0 0 201 44" fill="none" xmlns="http://www.w3.org/2000/svg">
<path d="M131.759 23.2561H122.021V31.0874H117.079V12.6958H122.021V20.1711H131.759V12.6958H136.701V31.0874H131.759V23.2561Z" fill="#2B2B2B"/>
<path d="M148.475 31.4436C143.678 31.4436 139.608 29.9011 139.463 25.5109H144.405C144.405 27.528 145.858 28.5959 148.62 28.5959C150.655 28.5959 152.835 27.7653 152.835 25.9855C152.835 24.5616 151.236 24.087 148.765 23.4937L147.166 23.1378C143.678 22.3072 140.044 21.1206 140.044 17.9169C140.044 13.764 144.695 12.4588 149.056 12.4588C153.416 12.4588 157.195 13.764 157.195 17.7983H152.254C152.108 16.1371 150.945 15.1879 148.62 15.1879C146.876 15.1879 144.986 16.0185 144.986 17.561C144.986 18.8662 146.44 19.3408 149.637 20.1714L151.527 20.646C155.451 21.5953 157.777 22.7818 157.777 25.7482C157.777 29.9011 152.835 31.4436 148.475 31.4436Z" fill="#2B2B2B"/>
<path d="M160.539 12.6958H168.388C170.859 12.6958 171.876 12.6958 172.748 12.9331C175.51 13.4077 177.545 14.9503 177.545 17.3234C177.545 19.6965 175.655 20.883 173.039 21.4763C176.091 21.9509 178.271 23.2561 178.271 25.9852C178.271 30.1381 173.184 31.0874 169.26 31.0874H160.394V12.6958H160.539ZM168.388 20.4084C170.568 20.4084 172.748 20.0524 172.748 17.9166C172.748 16.0181 170.713 15.5435 168.678 15.5435H165.19V20.4084H168.388ZM168.969 28.3583C171.295 28.3583 173.475 27.8837 173.475 25.6292C173.475 23.4934 171.585 22.9002 169.26 22.9002H165.335V28.2396H168.969V28.3583Z" fill="#2B2B2B"/>
<path d="M191.207 31.4436C183.94 31.4436 180.597 27.6466 180.597 22.0698C180.597 16.493 184.23 12.3401 191.352 12.3401C195.858 12.3401 200.219 14.0013 200.364 18.1542H195.277C194.986 16.3744 193.533 15.3065 191.352 15.3065C186.992 15.3065 185.684 19.2221 185.684 22.0698C185.684 25.0362 186.992 28.3585 191.207 28.3585C193.387 28.3585 194.986 27.4093 195.422 25.5108H200.509C199.928 29.9011 195.858 31.4436 191.207 31.4436Z" fill="#2B2B2B"/>
<path d="M81.1785 0H27.3994V43.9024H81.1785V0Z" fill="white"/>
<path d="M81.3242 43.9024L108.214 21.9512L81.3242 0V43.9024Z" fill="#2B2B2B"/>
<path d="M27.3993 43.9024L0.509766 21.9512L27.3993 0V43.9024Z" fill="#2B2B2B"/>
<path d="M81.3239 0L54.289 21.9512L27.3994 0H81.3239Z" fill="#2B2B2B"/>
<path d="M27.3994 43.9025L54.289 21.9512L81.3239 43.9025H27.3994Z" fill="#2B2B2B"/>
</svg>
