<svg width="151" height="30" viewBox="0 0 151 30" fill="none" xmlns="http://www.w3.org/2000/svg">
<path d="M143.367 12.2373L138.182 16.883L143.367 21.5288V24.213H143.208L135.483 17.3476V23.8517H133.261V4.13301H135.483V16.4701L143.208 9.6563H143.42V12.2373H143.367ZM42.2559 23.8517H53.6844V21.632H44.5839V4.80406H42.2559V23.8517ZM61.6209 9.6563C58.1289 9.6563 54.9014 12.4438 54.9014 16.9347C54.9014 21.2707 57.8114 24.1614 62.0442 24.1614C63.8961 24.1614 65.6421 23.6968 67.2294 22.6128V20.2383C65.5892 21.5804 63.7903 22.1482 62.15 22.1482C59.6104 22.1482 57.3881 20.5996 57.1765 17.7606H67.8643C67.8643 17.5025 67.9701 16.883 67.9701 16.6249C67.9172 12.0308 65.0601 9.6563 61.6209 9.6563ZM61.6209 11.6178C63.5786 11.6178 65.6421 12.8567 65.695 15.8506H57.1236C57.2823 13.5278 59.0813 11.6178 61.6209 11.6178ZM99.24 9.6563C97.3352 9.6563 95.9596 10.6371 95.1659 12.0824C94.4781 10.5338 93.2082 9.6563 91.1977 9.6563C89.4516 9.6563 88.1289 10.6371 87.3881 11.9792H87.2823L87.0178 9.9144H85.2717V23.8517H87.5469V15.0764C87.5469 13.3729 88.6051 11.7727 90.6157 11.7727C92.5204 11.7727 93.367 12.8567 93.367 14.8699V23.8517H95.6421V14.9215C95.6421 13.3213 96.7532 11.7727 98.658 11.7727C100.616 11.7727 101.462 12.8567 101.462 14.8699V23.8517H103.737V14.5602C103.79 11.6695 102.362 9.6563 99.24 9.6563ZM112.944 9.6563C109.557 9.6563 106.383 12.4438 106.383 16.9347C106.383 21.3223 109.557 24.1614 112.944 24.1614C115.06 24.1614 117.071 23.1806 118.182 21.2707H118.235L118.499 23.8517H120.351V9.9144H118.499L118.235 12.4954H118.182C117.124 10.6371 115.113 9.6563 112.944 9.6563ZM113.367 11.7211C116.065 11.7211 118.076 13.8375 118.076 16.883C118.076 19.9286 116.065 22.045 113.367 22.045C110.721 22.045 108.658 19.9802 108.658 16.883C108.658 13.7859 110.721 11.7211 113.367 11.7211ZM130.034 9.75954C128.817 9.75954 126.912 10.3274 125.96 12.134L125.748 9.9144H123.949V23.8517H126.224V15.8506C126.224 12.6502 128.87 11.6178 131.092 12.0824V9.86278C130.669 9.81116 130.404 9.75954 130.034 9.75954ZM82.3617 9.60468H82.2029L76.2241 15.3861L70.2982 9.60468H70.1395V12.3921L74.7426 16.883L70.1395 21.3223V24.1614H70.2982L76.1712 18.38L82.15 24.213H82.3617V21.3739L77.7585 16.883L82.3617 12.3405V9.60468ZM144.478 4.28787V3.97815H146.859V4.28787H145.854V6.61075H145.483V4.28787H144.478ZM148.023 3.97815L149.028 6.19779L150.034 3.97815H150.51V6.61075H150.245V4.39111L149.24 6.55913H148.923L147.917 4.39111V6.55913H147.6V3.97815H148.023Z" fill="#32323C"/>
<path d="M29.9805 23.9549V0.829285H24.2133L15.2715 9.55299L29.9805 23.9549Z" fill="#008A44"/>
<path d="M0.509766 6.45581V29.5814H6.27696L15.2188 20.8061L0.509766 6.45581Z" fill="#3AF23A"/>
<path d="M6.27734 29.5814H29.981V23.9548L21.0392 15.1795L6.27734 29.5814Z" fill="#006446"/>
<path d="M24.2135 0.829285H0.509766V6.45582L9.45158 15.1795L24.2135 0.829285Z" fill="#00C425"/>
</svg>
