<svg width="151" height="21" viewBox="0 0 151 21" fill="none" xmlns="http://www.w3.org/2000/svg">
<path d="M81.182 4.72686H83.4971V16.4145H80.5467L77.1149 11.0379C76.5277 10.0987 76.0272 9.09855 76.0272 9.09855H75.9935V16.4145H73.6688V4.72686H76.393L80.46 11.0942C80.7317 11.5134 80.9652 11.9549 81.1579 12.4137V4.72686H81.182ZM94.495 9.51178H90.4616V4.72216H87.5208V16.4098H90.4616V11.4229H94.495V16.4098H97.4502V4.72216H94.495V9.51178ZM51.4419 11.329H55.2635V9.57282H51.4419V6.53001H56.5582V4.72686H48.4915V16.4145H56.6449V14.4657H51.4419V11.3337V11.329ZM40.8242 7.38462C40.756 7.30689 40.7127 7.21129 40.6998 7.10972C40.6869 7.00816 40.7049 6.90514 40.7516 6.81351C40.7983 6.72187 40.8717 6.64568 40.9625 6.59443C41.0533 6.54318 41.1575 6.51914 41.2622 6.52531H45.6469V4.72686H40.4584C39.7925 4.70618 39.1446 4.94004 38.6528 5.37861C38.161 5.81717 37.8642 6.42577 37.8257 7.07471C37.8257 7.76028 37.8786 8.25802 38.9327 9.33803L42.8361 13.3294C42.9391 13.4169 43.0119 13.5334 43.0446 13.6628C43.0773 13.7922 43.0683 13.9283 43.0189 14.0525C42.9694 14.1768 42.8819 14.2831 42.7682 14.3571C42.6545 14.431 42.5202 14.469 42.3837 14.4657H37.5706V16.4145H43.0768C43.4554 16.427 43.8329 16.3654 44.1867 16.2332C44.5406 16.101 44.8637 15.901 45.137 15.6449C45.4102 15.3888 45.6281 15.0819 45.7777 14.7422C45.9273 14.4026 46.0056 14.0371 46.0079 13.6675C46.0079 12.8927 45.8202 12.3762 44.7758 11.3196L40.8242 7.38462ZM67.3347 12.3996C67.142 11.9408 66.9085 11.4993 66.6368 11.0801L62.5698 4.71277H59.8456V16.4145H62.1607V9.11264H62.1944C62.1944 9.11264 62.6757 10.1269 63.2821 11.052L66.7187 16.4285H69.6691V4.72686H67.354V12.4043L67.3347 12.3996ZM132.36 11.329H136.181V9.57282H132.36V6.53001H137.476V4.72686H129.409V16.4145H137.563V14.4657H132.36V11.3337V11.329ZM150.51 16.4145H147.309L145.008 11.6155H143.719V16.4145H140.773V4.72686H146.144C148.734 4.72686 149.937 6.29992 149.937 8.11715C149.936 8.81342 149.714 9.49225 149.3 10.0594C148.886 10.6265 148.301 11.0539 147.627 11.2821L150.51 16.4145ZM147.415 8.19228C147.415 7.65228 147.092 6.53001 145.538 6.53001H143.714V9.85456H145.504C147.121 9.85456 147.415 8.69003 147.415 8.19228ZM121.703 7.38932C121.635 7.31159 121.592 7.21598 121.579 7.11442C121.566 7.01286 121.584 6.90984 121.631 6.8182C121.678 6.72657 121.751 6.65038 121.842 6.59913C121.932 6.54788 122.037 6.52384 122.141 6.53001H126.526V4.72686H121.318C120.652 4.70618 120.005 4.94004 119.513 5.37861C119.021 5.81717 118.724 6.42577 118.686 7.07471C118.686 7.76028 118.739 8.25802 119.793 9.33803L123.696 13.3294C123.808 13.4137 123.889 13.5306 123.928 13.663C123.967 13.7955 123.962 13.9366 123.913 14.066C123.864 14.1953 123.774 14.306 123.656 14.3822C123.539 14.4583 123.399 14.4958 123.258 14.4892H118.431V16.4379H123.937C124.315 16.4505 124.693 16.3889 125.047 16.2567C125.401 16.1245 125.724 15.9245 125.997 15.6684C126.27 15.4123 126.488 15.1053 126.638 14.7657C126.787 14.4261 126.866 14.0606 126.868 13.6909C126.868 12.9162 126.68 12.3996 125.636 11.3431L121.703 7.38932ZM104.42 11.3337H108.241V9.57282H104.424V6.53001H109.541V4.72686H101.474V16.4145H109.627V14.4657H104.424V11.3337H104.42ZM112.833 16.4192H115.783V4.72686H112.833V16.4145V16.4192ZM0.509766 0.707336V20.4293H27.4631V0.707336H0.509766ZM15.3437 2.52457C13.741 3.12562 12.2008 4.44981 10.959 7.10758C10.598 7.87767 9.91936 9.36621 9.61132 10.033C7.11333 15.3814 5.83305 16.5318 2.06439 16.5318V2.18648H15.2763C15.3194 2.18399 15.3619 2.19684 15.396 2.22264C15.4301 2.24844 15.4535 2.28544 15.4617 2.32676C15.4699 2.36808 15.4625 2.41091 15.4408 2.44729C15.4191 2.48368 15.3846 2.51114 15.3437 2.52457ZM25.9325 4.60007V18.9501H12.6965C12.6539 18.9513 12.6123 18.9375 12.5792 18.9113C12.5462 18.8851 12.5238 18.8482 12.5162 18.8073C12.5087 18.7664 12.5164 18.7242 12.538 18.6884C12.5596 18.6526 12.5936 18.6255 12.6339 18.612C14.2367 18.011 15.7769 16.6868 17.0187 14.029C17.3797 13.2589 18.0583 11.7704 18.3663 11.1036C20.8595 5.75521 22.1398 4.60477 25.9084 4.60477L25.9325 4.60007Z" fill="#2B2B2B"/>
</svg>
