<svg width="40" height="51" viewBox="0 0 40 51" fill="none" xmlns="http://www.w3.org/2000/svg">
<path d="M34.1708 47.5433V50.6116H35.1794V48.5687H38.8501V50.6116H39.8579V47.5486L34.1708 47.5433ZM35.067 46.5508H38.9451C39.4838 46.4463 39.8844 45.9825 39.9973 45.5339H34.0149C34.1267 45.9827 34.5332 46.4463 35.067 46.5508ZM31.1162 50.6135C31.6247 50.4032 31.8983 50.0394 32.0031 49.6137H27.4795L27.4824 45.5364L26.4683 45.5392V50.6135H31.1162ZM18.9276 46.5371H22.5093C23.0492 46.384 23.5026 45.9827 23.6131 45.5378H17.9237V48.5365H22.5803V49.5888L18.9276 49.5916C18.3553 49.7473 17.8698 50.1223 17.6277 50.6176L17.9237 50.6123H23.5808V47.5395H18.9276V46.5371ZM10.0859 46.5467H13.9627C14.5021 46.4418 14.903 45.9785 15.0154 45.5294H9.03324C9.1449 45.9785 9.55166 46.4418 10.0859 46.5467ZM10.0859 48.5522H13.9627C14.5021 48.4484 14.903 47.9847 15.0154 47.5353H9.03324C9.1449 47.9848 9.55166 48.4484 10.0859 48.5522ZM10.0859 50.613H13.9627C14.5021 50.5084 14.903 50.0447 15.0154 49.596H9.03324C9.1449 50.0449 9.55166 50.5084 10.0859 50.613ZM0 45.5417C0.116545 45.9852 0.5101 46.4385 1.05005 46.552H2.68197L2.76522 46.5841V50.6016H3.78427V46.5841L3.87684 46.552H5.51019C6.05618 46.4148 6.44126 45.9852 6.5558 45.5417V45.5319H0V45.5417Z" fill="#2B2B2B"/>
<path d="M20.0002 35.5036L25.0921 7.56538C29.9455 7.56538 31.4763 8.0846 31.6974 10.2039C31.6974 10.2039 34.9532 9.01957 36.5953 6.61417C30.1873 3.71728 23.7488 3.58664 23.7488 3.58664L19.9918 8.051L20.0002 8.05044L16.2432 3.58594C16.2432 3.58594 9.80457 3.71672 3.39746 6.61361C5.03813 9.01901 8.29522 10.2034 8.29522 10.2034C8.51755 8.0839 10.0466 7.56468 14.8674 7.56132L20.0002 35.5036Z" fill="#2B2B2B"/>
<path d="M19.999 2.29719C25.179 2.25854 31.108 3.07896 37.1775 5.65981C37.9887 4.23531 38.1973 3.60575 38.1973 3.60575C31.5624 1.04478 25.3489 0.168347 19.9983 0.146362C14.648 0.168347 8.4348 1.04492 1.80078 3.60575C1.80078 3.60575 2.09674 4.38122 2.81983 5.65981C8.88821 3.07896 14.8182 2.25854 19.9983 2.29719H19.999Z" fill="#2B2B2B"/>
</svg>
